<?xml version="1.0" encoding="UTF-8"?>
<svg width="59px" height="44px" viewBox="0 0 59 44" version="1.1" xmlns="http://www.w3.org/2000/svg" xmlns:xlink="http://www.w3.org/1999/xlink">

    <g stroke-width="1" fill-rule="evenodd">
        <path d="M6.6675,39.4575 L23.23875,24.15375 L27.97125,28.52625 C28.33125,28.85625 28.78875,29.025 29.2425,29.025 C29.7,29.025 30.1575,28.85625 30.5175,28.52625 L35.25,24.1575 L51.82125,39.4575 L6.6675,39.4575 Z M3.75,6.1575 L20.475,21.60375 L3.75,37.05 L3.75,6.1575 Z M51.82125,3.75 L29.2425,24.59625 L6.6675,3.75 L51.82125,3.75 Z M54.73875,37.05 L38.01375,21.60375 L54.73875,6.1575 L54.73875,37.05 Z M58.43625,1.60125 C58.41375,1.4625 58.4025,1.32 58.35375,1.19625 C58.30125,1.06125 58.21125,0.945 58.12875,0.825 C58.07625,0.75 58.05375,0.6675 57.99,0.6 C57.9825,0.5925 57.97125,0.58875 57.96375,0.58125 C57.85125,0.465 57.71625,0.39 57.585,0.3075 C57.51,0.2625 57.45,0.195 57.3675,0.16125 C57.27,0.11625 57.165,0.1125 57.06375,0.09 C56.92875,0.05625 56.7975,0.0075 56.65125,0.0075 C56.64,0.0075 56.62875,0 56.61375,0 L1.875,0 C1.86375,0 1.8525,0.00375 1.84125,0.00375 C1.66875,0.0075 1.515,0.05625 1.3575,0.10125 C1.27875,0.12375 1.2,0.12375 1.125,0.1575 C1.03125,0.19875 0.96,0.27 0.87375,0.32625 C0.75375,0.405 0.63,0.4725 0.525,0.58125 C0.5175,0.58875 0.50625,0.5925 0.495,0.6 C0.435,0.6675 0.40875,0.75 0.36,0.825 C0.2775,0.945 0.1875,1.06125 0.135,1.19625 C0.08625,1.32 0.075,1.4625 0.0525,1.60125 C0.0375,1.69125 0,1.7775 0,1.875 L0,41.3325 C0,41.43 0.0375,41.5125 0.0525,41.60625 C0.075,41.745 0.08625,41.88375 0.135,42.01125 C0.1875,42.1425 0.2775,42.25875 0.36,42.3825 C0.40875,42.45375 0.435,42.54 0.495,42.60375 C0.50625,42.615 0.5175,42.615 0.525,42.62625 C0.68625,42.795 0.8775,42.9225 1.08,43.01625 C1.1025,43.0275 1.1175,43.04625 1.13625,43.0575 C1.3725,43.155 1.62375,43.2075 1.875,43.2075 L56.61375,43.2075 C56.865,43.2075 57.11625,43.155 57.34875,43.0575 C57.37125,43.04625 57.38625,43.0275 57.40875,43.01625 C57.61125,42.9225 57.79875,42.795 57.96375,42.62625 C57.97125,42.615 57.9825,42.615 57.99,42.60375 C58.05375,42.54 58.07625,42.45375 58.12875,42.3825 C58.21125,42.25875 58.30125,42.1425 58.35375,42.01125 C58.4025,41.88375 58.41375,41.745 58.43625,41.60625 C58.4475,41.5125 58.48875,41.43 58.48875,41.3325 L58.48875,1.875 C58.48875,1.7775 58.4475,1.69125 58.43625,1.60125 L58.43625,1.60125 Z" id="Shape"></path>
    </g>
</svg>