<?xml version="1.0" encoding="UTF-8"?>
<svg width="31px" height="36px" viewBox="0 0 31 36" version="1.1" xmlns="http://www.w3.org/2000/svg" xmlns:xlink="http://www.w3.org/1999/xlink">
    <g stroke-width="1" fill-rule="evenodd">
        <path d="M29.4911066,7.63393767 L23.223242,1.36607306 C22.4799375,0.6227686 20.9933286,0 19.9285952,0 L1.92857373,0 C0.863840315,0 0,0.863840315 0,1.92857373 L0,34.0714692 C0,35.1362026 0.863840315,36.0000429 1.92857373,36.0000429 L28.9286059,36.0000429 C29.9933393,36.0000429 30.8571796,35.1362026 30.8571796,34.0714692 L30.8571796,10.9285845 C30.8571796,9.86385104 30.234411,8.37724213 29.4911066,7.63393767 Z M20.5714531,2.73214611 C20.9129714,2.85268197 21.2544896,3.03348576 21.3951148,3.17411093 L27.6830687,9.46206485 C27.8236939,9.60269002 28.0044977,9.94420828 28.1250335,10.2857265 L20.5714531,10.2857265 L20.5714531,2.73214611 Z M28.285748,33.4286113 L2.57143164,33.4286113 L2.57143164,2.57143164 L18.0000215,2.57143164 L18.0000215,10.9285845 C18.0000215,11.9933179 18.8638618,12.8571582 19.9285952,12.8571582 L28.285748,12.8571582 L28.285748,33.4286113 Z M7.71429491,16.0714477 L7.71429491,17.3571635 C7.71429491,17.7187711 7.99554525,18.0000215 8.35715282,18.0000215 L22.5000268,18.0000215 C22.8616344,18.0000215 23.1428847,17.7187711 23.1428847,17.3571635 L23.1428847,16.0714477 C23.1428847,15.7098402 22.8616344,15.4285898 22.5000268,15.4285898 L8.35715282,15.4285898 C7.99554525,15.4285898 7.71429491,15.7098402 7.71429491,16.0714477 Z M22.5000268,20.5714531 L8.35715282,20.5714531 C7.99554525,20.5714531 7.71429491,20.8527034 7.71429491,21.214311 L7.71429491,22.5000268 C7.71429491,22.8616344 7.99554525,23.1428847 8.35715282,23.1428847 L22.5000268,23.1428847 C22.8616344,23.1428847 23.1428847,22.8616344 23.1428847,22.5000268 L23.1428847,21.214311 C23.1428847,20.8527034 22.8616344,20.5714531 22.5000268,20.5714531 Z M22.5000268,25.7143164 L8.35715282,25.7143164 C7.99554525,25.7143164 7.71429491,25.9955667 7.71429491,26.3571743 L7.71429491,27.6428901 C7.71429491,28.0044977 7.99554525,28.285748 8.35715282,28.285748 L22.5000268,28.285748 C22.8616344,28.285748 23.1428847,28.0044977 23.1428847,27.6428901 L23.1428847,26.3571743 C23.1428847,25.9955667 22.8616344,25.7143164 22.5000268,25.7143164 Z" id="File-Text-Outlined---FontAwesome"></path>
    </g>
</svg>