<?xml version="1.0" encoding="UTF-8"?>
<svg width="25px" height="22px" viewBox="0 0 25 22" version="1.1" xmlns="http://www.w3.org/2000/svg" xmlns:xlink="http://www.w3.org/1999/xlink">
    <g id="XMLID_5_">
        <path d="M15.7,1.2 C15.1,0.8 14.7,0.8 14.6,0.8 C14.5,0.8 14.6,1.1 14.5,1.2 C14.4,1.3 14.2,1.3 14.2,1.4 C14.2,1.5 14.2,1.6 14.1,1.8 C14,2 9.7,6.4 9.2,7.1 C8.8,7.4 7.2,8.2 7,8.4 C6.8,8.6 0.9,17.2 0.7,17.5 C0.2,18.2 0.9,19.6 2.1,20.4 C3.4,21.3 5,21.7 5.6,21 C5.8,20.7 11.8,12.2 12,12 C12.1,11.8 12.3,10 12.5,9.5 C12.9,8.8 15.7,3.3 15.8,3.1 C15.9,2.9 16,2.9 16.1,2.8 C16.2,2.7 16.1,2.6 16.1,2.5 C16.2,2.4 16.5,2.4 16.5,2.2 C16.3,1.7 15.7,1.2 15.7,1.2 L15.7,1.2 Z" id="XMLID_3_"></path>
        <path d="M11.3,1.7 C11.2,1.5 11.2,1.4 11.2,1.3 C11.2,1.2 11,1.2 10.9,1.2 C10.8,1.1 10.9,0.8 10.8,0.8 C10.4,0.7 9.8,1.1 9.8,1.1 C9.1,1.5 9,2 8.9,2.1 C8.9,2.2 9.2,2.2 9.3,2.3 C9.4,2.4 9.3,2.6 9.3,2.6 C9.4,2.7 9.5,2.7 9.6,2.9 C9.6,3 10.1,3.8 10.6,4.8 C11.2,4.2 11.8,3.5 12.4,2.9 C11.8,2.2 11.4,1.8 11.3,1.7 L11.3,1.7 Z" id="XMLID_2_"></path>
        <path d="M24.9,17.3 C24.7,17 18.7,8.4 18.5,8.2 C18.3,8 16.7,7.3 16.3,6.9 C16.1,6.7 15.6,6.1 14.9,5.4 C14.1,7 13.3,8.5 13,9.2 L13,9.3 C13.2,9.8 13.3,11.5 13.5,11.8 C13.6,12 19.7,20.6 19.9,20.8 C20.4,21.5 21.9,21.3 23.2,20.4 C24.4,19.5 25.3,18.1 24.9,17.3 L24.9,17.3 Z" id="XMLID_1_"></path>
    </g>
</svg>