<?xml version="1.0" encoding="UTF-8"?>
<svg width="184px" height="184px" viewBox="0 0 184 184" version="1.1" xmlns="http://www.w3.org/2000/svg" xmlns:xlink="http://www.w3.org/1999/xlink">
    <defs></defs>
    <g>
        <rect id="MAL" x="0" y="0" width="184" height="184"></rect>
        <path d="M15.7599945,166.230011 L31.4060362,166.230011 L31.4060362,130.702458 L43,144.987416 L54.3800049,130.492719 L54.383283,166.23359 L70.8395291,166.23359 L70.8399963,105.770515 L55.3800049,105.770515 L43,122.773077 L30.3154157,105.95765 L15.3197664,105.95765 L15.7599945,166.230011 Z M130.621078,119.222056 L112.368721,119.222056 C112.368721,119.222056 107.360358,119.879153 102.958593,123.736643 C98.5568276,127.594134 97.4524763,133.677882 97.4524763,133.677882 L112.775885,133.677882 L112.775885,121.742875 L127.573915,121.742875 L127.573915,166.404812 L113.69338,166.404812 L113.69338,146.455732 L95.9916308,146.455732 C95.9916308,146.455732 95.6490296,150.997821 97,156 C98.3509704,161.002179 101,165 101,165 L89,174 C89,174 85,168.5 83,165 C80.5,161 79.5,159 79,152 C78.5,145 78.5,143.5 80,136 C82.5,127.5 82.5,125.5 87,119 C90.5,115 93,113.5 97,111 C103.5,107 108,106 108,106 L127,106 L130.621078,119.222056 Z M139.5,106.5 L139.5,166.5 L172.003846,166.5 L176,153.5 L154.994048,153.5 L154.994048,106.5 L139.5,106.5 Z" id="Combined-Shape" fill="#FFFFFF"></path>
    </g>
</svg>