<?xml version="1.0" encoding="UTF-8" standalone="no"?>
<svg width="59px" height="65px" viewBox="0 0 59 65" version="1.1" xmlns="http://www.w3.org/2000/svg" xmlns:xlink="http://www.w3.org/1999/xlink" xmlns:sketch="http://www.bohemiancoding.com/sketch/ns">
    <!-- Generator: Sketch 3.3.3 (12081) - http://www.bohemiancoding.com/sketch -->
    <title>Group</title>
    <desc>Created with Sketch.</desc>
    <defs></defs>
    <g id="Page-1" stroke="none" stroke-width="1" fill="none" fill-rule="evenodd" sketch:type="MSPage">
        <g id="1024" sketch:type="MSArtboardGroup" transform="translate(-739.000000, -377.000000)" stroke="#A2A2A2" stroke-width="4" fill="#FFFFFF">
            <g id="stokr-+-smoke" sketch:type="MSLayerGroup" transform="translate(675.000000, 379.000000)">
                <g id="Group" transform="translate(66.000000, 0.000000)" sketch:type="MSShapeGroup">
                    <path d="M11.3180184,21.9062216 C5.96977505,25.1343611 2.39370271,31.0016384 2.39370271,37.7041522 C2.39370271,39.4055106 2.62412396,41.0530513 3.05546203,42.6172699 C1.62404581,44.3868066 0.766703824,46.639854 0.766703824,49.0931444 C0.766703824,51.8000773 -0.14753612,56.4116853 2.28238611,58.8416075 C4.71230834,61.2715297 8.08704077,59.3974706 11.0710301,59.3974706 C14.0944584,59.3974706 16.8137572,58.095337 18.6987146,56.0212815 L18.6987146,56.0212815 C19.3989599,56.1019912 20.1111474,56.1434729 20.8330234,56.1434729 C28.5999318,56.1434729 35.2452598,51.3414168 37.9619962,44.544316 C44.8650419,43.3637576 50.1190033,37.3511884 50.1190033,30.1114907 C50.1190033,29.1375903 50.0239264,28.1858962 49.8425481,27.2651841 C53.0077546,24.4348485 55,20.3199148 55,15.7396672 C55,7.20328383 48.079894,0.283177803 39.5435106,0.283177803 C34.9588001,0.283177803 30.8403107,2.2793075 28.0097238,5.44988542 C27.0929628,5.26254876 26.1438132,5.16417446 25.1716871,5.16417446 C17.3841093,5.16417446 11.0710301,11.4772536 11.0710301,19.2648315 C11.0710301,20.1676236 11.1558723,21.0505997 11.3180184,21.9062216 Z" id="Oval-34"></path>
                </g>
            </g>
        </g>
    </g>
</svg>